<svg width="20" height="20" xmlns="http://www.w3.org/2000/svg" shape-rendering="crispEdges"><path fill="#554838" d="M5 2h1v1H5zm1 0h1v1H6zm1 0h1v1H7zm1 0h1v1H8zm1 0h1v1H9zm1 0h1v1h-1zm1 0h1v1h-1zm1 0h1v1h-1zm1 0h1v1h-1zm1 0h1v1h-1zM4 3h1v1H4zm1 0h1v1H5zm1 0h1v1H6zm1 0h1v1H7z"/><path fill="#F6D4A9" d="M8 3h1v1H8z"/><path fill="#554838" d="M9 3h1v1H9zm1 0h1v1h-1zm1 0h1v1h-1zm1 0h1v1h-1zm1 0h1v1h-1zm1 0h1v1h-1zm1 0h1v1h-1zM3 4h1v1H3zm1 0h1v1H4zm1 0h1v1H5z"/><path fill="#F6D4A9" d="M6 4h1v1H6zm1 0h1v1H7zm1 0h1v1H8zm1 0h1v1H9zm1 0h1v1h-1z"/><path fill="#554838" d="M11 4h1v1h-1zm1 0h1v1h-1zm1 0h1v1h-1zm1 0h1v1h-1zm1 0h1v1h-1zm1 0h1v1h-1zM3 5h1v1H3z"/><path fill="#F6D4A9" d="M4 5h1v1H4z"/><path fill="#3B3227" d="M5 5h1v1H5zm1 0h1v1H6z"/><path fill="#F6D4A9" d="M7 5h1v1H7zm1 0h1v1H8zm1 0h1v1H9zm1 0h1v1h-1zm1 0h1v1h-1z"/><path fill="#3B3227" d="M12 5h1v1h-1z"/><path fill="#554838" d="M13 5h1v1h-1zm1 0h1v1h-1zm1 0h1v1h-1zm1 0h1v1h-1zM3 6h1v1H3z"/><path fill="#A04B5D" d="M4 6h1v1H4zm1 0h1v1H5zm1 0h1v1H6zm1 0h1v1H7zm1 0h1v1H8z"/><path fill="#F6D4A9" d="M9 6h1v1H9zm1 0h1v1h-1z"/><path fill="#A04B5D" d="M11 6h1v1h-1zm1 0h1v1h-1zm1 0h1v1h-1zm1 0h1v1h-1z"/><path fill="#554838" d="M15 6h1v1h-1zm1 0h1v1h-1z"/><path fill="#F6D4A9" d="M2 7h1v1H2z"/><path fill="#B36F7D" d="M3 7h1v1H3z"/><path fill="#A04B5D" d="M4 7h1v1H4z"/><path fill="#FFF" d="M5 7h1v1H5zm1 0h1v1H6zm1 0h1v1H7z"/><path fill="#A04B5D" d="M8 7h1v1H8z"/><path fill="#B36F7D" d="M9 7h1v1H9zm1 0h1v1h-1z"/><path fill="#A04B5D" d="M11 7h1v1h-1z"/><path fill="#FFF" d="M12 7h1v1h-1zm1 0h1v1h-1zm1 0h1v1h-1z"/><path fill="#A04B5D" d="M15 7h1v1h-1z"/><path fill="#B36F7D" d="M16 7h1v1h-1z"/><path fill="#F6D4A9" d="M17 7h1v1h-1zM2 8h1v1H2zm1 0h1v1H3z"/><path fill="#A04B5D" d="M4 8h1v1H4z"/><path fill="#FFF" d="M5 8h1v1H5zm1 0h1v1H6z"/><path fill="#799C9F" d="M7 8h1v1H7z"/><path fill="#A04B5D" d="M8 8h1v1H8z"/><path fill="#F6D4A9" d="M9 8h1v1H9zm1 0h1v1h-1z"/><path fill="#A04B5D" d="M11 8h1v1h-1z"/><path fill="#FFF" d="M12 8h1v1h-1zm1 0h1v1h-1z"/><path fill="#799C9F" d="M14 8h1v1h-1z"/><path fill="#A04B5D" d="M15 8h1v1h-1z"/><path fill="#F6D4A9" d="M16 8h1v1h-1zm1 0h1v1h-1zM2 9h1v1H2zm1 0h1v1H3z"/><path fill="#A04B5D" d="M4 9h1v1H4z"/><path fill="#F8DDBA" d="M5 9h1v1H5zm1 0h1v1H6zm1 0h1v1H7z"/><path fill="#A04B5D" d="M8 9h1v1H8z"/><path fill="#F6D4A9" d="M9 9h1v1H9zm1 0h1v1h-1z"/><path fill="#A04B5D" d="M11 9h1v1h-1z"/><path fill="#F8DDBA" d="M12 9h1v1h-1zm1 0h1v1h-1zm1 0h1v1h-1z"/><path fill="#A04B5D" d="M15 9h1v1h-1z"/><path fill="#F6D4A9" d="M16 9h1v1h-1zm1 0h1v1h-1zM3 10h1v1H3z"/><path fill="#A04B5D" d="M4 10h1v1H4zm1 0h1v1H5zm1 0h1v1H6zm1 0h1v1H7zm1 0h1v1H8z"/><path fill="#F6D4A9" d="M9 10h1v1H9zm1 0h1v1h-1z"/><path fill="#A04B5D" d="M11 10h1v1h-1zm1 0h1v1h-1zm1 0h1v1h-1zm1 0h1v1h-1zm1 0h1v1h-1z"/><path fill="#F6D4A9" d="M16 10h1v1h-1zM3 11h1v1H3zm1 0h1v1H4zm1 0h1v1H5zm1 0h1v1H6zm1 0h1v1H7zm1 0h1v1H8zm1 0h1v1H9zm1 0h1v1h-1zm1 0h1v1h-1zm1 0h1v1h-1zm1 0h1v1h-1zm1 0h1v1h-1zm1 0h1v1h-1zm1 0h1v1h-1zM3 12h1v1H3zm1 0h1v1H4zm1 0h1v1H5zm1 0h1v1H6zm1 0h1v1H7zm1 0h1v1H8zm1 0h1v1H9zm1 0h1v1h-1zm1 0h1v1h-1z"/><path fill="#DBB2A0" d="M12 12h1v1h-1z"/><path fill="#F6D4A9" d="M13 12h1v1h-1zm1 0h1v1h-1zm1 0h1v1h-1zm1 0h1v1h-1zM4 13h1v1H4zm1 0h1v1H5zm1 0h1v1H6zm1 0h1v1H7z"/><path fill="#DBB2A0" d="M8 13h1v1H8zm1 0h1v1H9zm1 0h1v1h-1zm1 0h1v1h-1z"/><path fill="#F6D4A9" d="M12 13h1v1h-1zm1 0h1v1h-1zm1 0h1v1h-1zm1 0h1v1h-1zM5 14h1v1H5zm1 0h1v1H6zm1 0h1v1H7zm1 0h1v1H8zm1 0h1v1H9zm1 0h1v1h-1zm1 0h1v1h-1zm1 0h1v1h-1zm1 0h1v1h-1zm1 0h1v1h-1z"/><path fill="#F5CFA0" d="M8 15h1v1H8zm1 0h1v1H9zm1 0h1v1h-1zm1 0h1v1h-1z"/><path fill="#7B7577" d="M4 16h1v1H4zm1 0h1v1H5zm1 0h1v1H6zm1 0h1v1H7z"/><path fill="#5A5255" d="M8 16h1v1H8z"/><path fill="#FFF" d="M9 16h1v1H9zm1 0h1v1h-1z"/><path fill="#5A5255" d="M11 16h1v1h-1z"/><path fill="#7B7577" d="M12 16h1v1h-1zm1 0h1v1h-1zm1 0h1v1h-1zm1 0h1v1h-1zM3 17h1v1H3zm1 0h1v1H4zm1 0h1v1H5zm1 0h1v1H6z"/><path fill="#5A5255" d="M7 17h1v1H7zm1 0h1v1H8zm1 0h1v1H9zm1 0h1v1h-1zm1 0h1v1h-1zm1 0h1v1h-1z"/><path fill="#7B7577" d="M13 17h1v1h-1zm1 0h1v1h-1zm1 0h1v1h-1zm1 0h1v1h-1zM3 18h1v1H3zm1 0h1v1H4zm1 0h1v1H5zm1 0h1v1H6zm1 0h1v1H7z"/><path fill="#5A5255" d="M8 18h1v1H8z"/><path fill="#7B7577" d="M9 18h1v1H9zm1 0h1v1h-1z"/><path fill="#5A5255" d="M11 18h1v1h-1z"/><path fill="#7B7577" d="M12 18h1v1h-1zm1 0h1v1h-1zm1 0h1v1h-1zm1 0h1v1h-1zm1 0h1v1h-1zM3 19h1v1H3zm1 0h1v1H4zm1 0h1v1H5zm1 0h1v1H6zm1 0h1v1H7zm1 0h1v1H8zm1 0h1v1H9zm1 0h1v1h-1zm1 0h1v1h-1zm1 0h1v1h-1zm1 0h1v1h-1zm1 0h1v1h-1zm1 0h1v1h-1zm1 0h1v1h-1z"/></svg>