<svg width="20" height="20" shape-rendering="crispEdges" xmlns="http://www.w3.org/2000/svg"><path d="M5 2h1v1H5zm1 0h1v1H6zm1 0h1v1H7zm1 0h1v1H8zm1 0h1v1H9zm1 0h1v1h-1zm1 0h1v1h-1zm1 0h1v1h-1zm1 0h1v1h-1zm1 0h1v1h-1zM4 3h1v1H4zm1 0h1v1H5zm1 0h1v1H6zm1 0h1v1H7z" fill="#554838"/><path d="M8 3h1v1H8z" fill="#F6D4A9"/><path d="M9 3h1v1H9zm1 0h1v1h-1zm1 0h1v1h-1zm1 0h1v1h-1zm1 0h1v1h-1zm1 0h1v1h-1zm1 0h1v1h-1zM3 4h1v1H3zm1 0h1v1H4zm1 0h1v1H5z" fill="#554838"/><path d="M6 4h1v1H6zm1 0h1v1H7zm1 0h1v1H8zm1 0h1v1H9zm1 0h1v1h-1z" fill="#F6D4A9"/><path d="M11 4h1v1h-1zm1 0h1v1h-1zm1 0h1v1h-1zm1 0h1v1h-1zm1 0h1v1h-1zm1 0h1v1h-1zM3 5h1v1H3z" fill="#554838"/><path d="M4 5h1v1H4z" fill="#F6D4A9"/><path d="M5 5h1v1H5zm1 0h1v1H6z" fill="#3B3227"/><path d="M7 5h1v1H7zm1 0h1v1H8zm1 0h1v1H9zm1 0h1v1h-1zm1 0h1v1h-1z" fill="#F6D4A9"/><path d="M12 5h1v1h-1z" fill="#3B3227"/><path d="M13 5h1v1h-1zm1 0h1v1h-1zm1 0h1v1h-1zm1 0h1v1h-1zM3 6h1v1H3z" fill="#554838"/><path d="M4 6h1v1H4zm1 0h1v1H5zm1 0h1v1H6zm1 0h1v1H7zm1 0h1v1H8z" fill="#A04B5D"/><path d="M9 6h1v1H9zm1 0h1v1h-1z" fill="#F6D4A9"/><path d="M11 6h1v1h-1zm1 0h1v1h-1zm1 0h1v1h-1zm1 0h1v1h-1z" fill="#A04B5D"/><path d="M15 6h1v1h-1zm1 0h1v1h-1z" fill="#554838"/><path d="M2 7h1v1H2z" fill="#F6D4A9"/><path d="M3 7h1v1H3z" fill="#B36F7D"/><path d="M4 7h1v1H4z" fill="#A04B5D"/><path d="M5 7h1v1H5zm1 0h1v1H6zm1 0h1v1H7z" fill="#FFF"/><path d="M8 7h1v1H8z" fill="#A04B5D"/><path d="M9 7h1v1H9zm1 0h1v1h-1z" fill="#B36F7D"/><path d="M11 7h1v1h-1z" fill="#A04B5D"/><path d="M12 7h1v1h-1zm1 0h1v1h-1zm1 0h1v1h-1z" fill="#FFF"/><path d="M15 7h1v1h-1z" fill="#A04B5D"/><path d="M16 7h1v1h-1z" fill="#B36F7D"/><path d="M17 7h1v1h-1zM2 8h1v1H2zm1 0h1v1H3z" fill="#F6D4A9"/><path d="M4 8h1v1H4z" fill="#A04B5D"/><path d="M5 8h1v1H5zm1 0h1v1H6z" fill="#FFF"/><path d="M7 8h1v1H7z" fill="#799C9F"/><path d="M8 8h1v1H8z" fill="#A04B5D"/><path d="M9 8h1v1H9zm1 0h1v1h-1z" fill="#F6D4A9"/><path d="M11 8h1v1h-1z" fill="#A04B5D"/><path d="M12 8h1v1h-1zm1 0h1v1h-1z" fill="#FFF"/><path d="M14 8h1v1h-1z" fill="#799C9F"/><path d="M15 8h1v1h-1z" fill="#A04B5D"/><path d="M16 8h1v1h-1zm1 0h1v1h-1zM2 9h1v1H2zm1 0h1v1H3z" fill="#F6D4A9"/><path d="M4 9h1v1H4z" fill="#A04B5D"/><path d="M5 9h1v1H5zm1 0h1v1H6zm1 0h1v1H7z" fill="#F8DDBA"/><path d="M8 9h1v1H8z" fill="#A04B5D"/><path d="M9 9h1v1H9zm1 0h1v1h-1z" fill="#F6D4A9"/><path d="M11 9h1v1h-1z" fill="#A04B5D"/><path d="M12 9h1v1h-1zm1 0h1v1h-1zm1 0h1v1h-1z" fill="#F8DDBA"/><path d="M15 9h1v1h-1z" fill="#A04B5D"/><path d="M16 9h1v1h-1zm1 0h1v1h-1zM3 10h1v1H3z" fill="#F6D4A9"/><path d="M4 10h1v1H4zm1 0h1v1H5zm1 0h1v1H6zm1 0h1v1H7zm1 0h1v1H8z" fill="#A04B5D"/><path d="M9 10h1v1H9zm1 0h1v1h-1z" fill="#F6D4A9"/><path d="M11 10h1v1h-1zm1 0h1v1h-1zm1 0h1v1h-1zm1 0h1v1h-1zm1 0h1v1h-1z" fill="#A04B5D"/><path d="M16 10h1v1h-1zM3 11h1v1H3zm1 0h1v1H4zm1 0h1v1H5zm1 0h1v1H6zm1 0h1v1H7zm1 0h1v1H8zm1 0h1v1H9zm1 0h1v1h-1zm1 0h1v1h-1zm1 0h1v1h-1zm1 0h1v1h-1zm1 0h1v1h-1zm1 0h1v1h-1zm1 0h1v1h-1zM3 12h1v1H3zm1 0h1v1H4zm1 0h1v1H5zm1 0h1v1H6zm1 0h1v1H7zm1 0h1v1H8zm1 0h1v1H9zm1 0h1v1h-1zm1 0h1v1h-1z" fill="#F6D4A9"/><path d="M12 12h1v1h-1z" fill="#DBB2A0"/><path d="M13 12h1v1h-1zm1 0h1v1h-1zm1 0h1v1h-1zm1 0h1v1h-1zM4 13h1v1H4zm1 0h1v1H5zm1 0h1v1H6zm1 0h1v1H7z" fill="#F6D4A9"/><path d="M8 13h1v1H8zm1 0h1v1H9zm1 0h1v1h-1zm1 0h1v1h-1z" fill="#DBB2A0"/><path d="M12 13h1v1h-1zm1 0h1v1h-1zm1 0h1v1h-1zm1 0h1v1h-1zM5 14h1v1H5zm1 0h1v1H6zm1 0h1v1H7zm1 0h1v1H8zm1 0h1v1H9zm1 0h1v1h-1zm1 0h1v1h-1zm1 0h1v1h-1zm1 0h1v1h-1zm1 0h1v1h-1z" fill="#F6D4A9"/><path d="M8 15h1v1H8zm1 0h1v1H9zm1 0h1v1h-1zm1 0h1v1h-1z" fill="#F5CFA0"/><path d="M4 16h1v1H4zm1 0h1v1H5zm1 0h1v1H6zm1 0h1v1H7z" fill="#7B7577"/><path d="M8 16h1v1H8z" fill="#5A5255"/><path d="M9 16h1v1H9zm1 0h1v1h-1z" fill="#FFF"/><path d="M11 16h1v1h-1z" fill="#5A5255"/><path d="M12 16h1v1h-1zm1 0h1v1h-1zm1 0h1v1h-1zm1 0h1v1h-1zM3 17h1v1H3zm1 0h1v1H4zm1 0h1v1H5zm1 0h1v1H6z" fill="#7B7577"/><path d="M7 17h1v1H7zm1 0h1v1H8zm1 0h1v1H9zm1 0h1v1h-1zm1 0h1v1h-1zm1 0h1v1h-1z" fill="#5A5255"/><path d="M13 17h1v1h-1zm1 0h1v1h-1zm1 0h1v1h-1zm1 0h1v1h-1zM3 18h1v1H3zm1 0h1v1H4zm1 0h1v1H5zm1 0h1v1H6zm1 0h1v1H7z" fill="#7B7577"/><path d="M8 18h1v1H8z" fill="#5A5255"/><path d="M9 18h1v1H9zm1 0h1v1h-1z" fill="#7B7577"/><path d="M11 18h1v1h-1z" fill="#5A5255"/><path d="M12 18h1v1h-1zm1 0h1v1h-1zm1 0h1v1h-1zm1 0h1v1h-1zm1 0h1v1h-1zM3 19h1v1H3zm1 0h1v1H4zm1 0h1v1H5zm1 0h1v1H6zm1 0h1v1H7zm1 0h1v1H8zm1 0h1v1H9zm1 0h1v1h-1zm1 0h1v1h-1zm1 0h1v1h-1zm1 0h1v1h-1zm1 0h1v1h-1zm1 0h1v1h-1zm1 0h1v1h-1z" fill="#7B7577"/></svg>